<svg width="231" height="231" viewBox="0 0 231 231" fill="none" xmlns="http://www.w3.org/2000/svg">
<path d="M142.065 218.68C140.429 218.68 138.889 218.295 137.637 217.525C133.306 214.734 111.746 199.815 107.8 177.1C105.683 164.491 109.244 151.979 118.484 140.044C145.338 105.298 148.321 95.1914 148.417 94.8064C148.802 92.1114 150.631 90.1864 153.23 89.3201C155.829 88.4539 158.524 89.3201 160.545 91.2451C182.49 112.516 192.5 134.461 190.19 156.503C186.533 191.056 153.038 213.675 146.396 217.814C145.241 218.295 143.605 218.68 142.065 218.68ZM157.658 108.859C153.23 116.655 145.145 129.168 129.938 148.706C123.104 157.465 120.601 165.935 122.045 174.501C124.355 187.88 136.098 198.371 142.161 202.895C151.69 196.254 173.25 178.736 175.753 154.578C177.389 139.755 171.325 124.451 157.658 108.859Z" fill="#B0E248"/>
<path d="M98.9454 218.776C96.4429 218.776 93.9402 218.103 92.1115 217.621C70.8402 211.558 51.5903 192.115 44.0828 169.304C36.3828 145.915 41.0986 121.468 57.4611 100.389C87.2986 61.3113 97.2129 29.8375 99.5229 21.175C100.582 17.0363 103.662 13.86 107.897 12.6088C112.228 11.4538 116.944 12.705 120.216 15.9775C120.505 16.17 120.698 16.4588 120.89 16.7475C129.938 28.875 139.659 50.5313 139.659 74.9788C139.659 91.7263 127.916 106.934 116.559 121.564C104.528 137.156 92.1116 153.23 93.4591 170.651C94.7104 183.549 100.293 193.366 104.046 199.911C107.223 205.398 110.206 210.595 106.453 215.504C104.431 218.006 101.737 218.776 98.9454 218.776ZM93.8439 211.461H93.9403H93.8439ZM112.132 29.4525C107.704 43.9863 96.1536 73.4388 68.9149 109.244C51.8786 131.285 53.5153 151.69 57.8465 164.876C62.9478 180.373 74.4978 193.848 87.9728 200.585C84.3153 193.463 80.2724 183.838 79.1174 171.903C77.3849 148.803 92.1113 129.649 105.201 112.709C115.5 99.33 125.222 86.7213 125.222 74.8825C125.222 56.595 118.677 39.8475 112.132 29.4525ZM113.479 24.7363C113.479 24.7363 113.479 24.8325 113.479 24.7363C113.479 24.8325 113.479 24.7363 113.479 24.7363Z" fill="#B0E248"/>
</svg>
