<svg width="231" height="231" viewBox="0 0 231 231" fill="none" xmlns="http://www.w3.org/2000/svg">
<path d="M142.065 218.68C140.429 218.68 138.889 218.295 137.637 217.525C133.306 214.734 111.746 199.815 107.8 177.1C105.683 164.491 109.244 151.979 118.484 140.044C145.338 105.297 148.321 95.1912 148.417 94.8062C148.802 92.1112 150.631 90.1862 153.23 89.32C155.829 88.4537 158.524 89.32 160.545 91.245C182.49 112.516 192.5 134.461 190.19 156.502C186.533 191.056 153.038 213.675 146.396 217.814C145.241 218.295 143.605 218.68 142.065 218.68ZM157.658 108.859C153.23 116.655 145.145 129.167 129.938 148.706C123.104 157.465 120.601 165.935 122.045 174.501C124.355 187.88 136.098 198.371 142.161 202.895C151.69 196.254 173.25 178.736 175.753 154.577C177.389 139.755 171.325 124.451 157.658 108.859Z" fill="#60C597"/>
<path d="M98.9454 218.776C96.4429 218.776 93.9402 218.102 92.1115 217.621C70.8402 211.557 51.5903 192.115 44.0828 169.304C36.3828 145.915 41.0986 121.467 57.4611 100.389C87.2986 61.3112 97.2129 29.8375 99.5229 21.175C100.582 17.0362 103.662 13.86 107.897 12.6087C112.228 11.4537 116.944 12.705 120.216 15.9775C120.505 16.17 120.698 16.4587 120.89 16.7475C129.938 28.875 139.659 50.5312 139.659 74.9787C139.659 91.7262 127.916 106.934 116.559 121.564C104.528 137.156 92.1116 153.23 93.4591 170.651C94.7104 183.549 100.293 193.366 104.046 199.911C107.223 205.397 110.206 210.595 106.453 215.504C104.431 218.006 101.737 218.776 98.9454 218.776ZM93.8439 211.461H93.9403H93.8439ZM112.132 29.4525C107.704 43.9862 96.1536 73.4387 68.9149 109.244C51.8786 131.285 53.5153 151.69 57.8465 164.876C62.9478 180.372 74.4978 193.847 87.9728 200.585C84.3153 193.462 80.2724 183.837 79.1174 171.902C77.3849 148.802 92.1113 129.649 105.201 112.709C115.5 99.33 125.222 86.7212 125.222 74.8825C125.222 56.595 118.677 39.8475 112.132 29.4525ZM113.479 24.7362C113.479 24.7362 113.479 24.8325 113.479 24.7362C113.479 24.8325 113.479 24.7362 113.479 24.7362Z" fill="#60C597"/>
</svg>
